<svg width="25" height="25" viewBox="0 0 25 25" fill="none" xmlns="http://www.w3.org/2000/svg">
<path d="M2.55611 8.27031C2.84912 7.97739 3.24648 7.81283 3.6608 7.81283C4.07512 7.81283 4.47247 7.97739 4.76549 8.27031L12.4999 16.0047L20.2342 8.27031C20.5289 7.98569 20.9236 7.8282 21.3333 7.83176C21.743 7.83532 22.1349 7.99965 22.4246 8.28935C22.7143 8.57905 22.8786 8.97094 22.8822 9.38062C22.8857 9.79031 22.7282 10.185 22.4436 10.4797L13.6045 19.3188C13.3115 19.6117 12.9142 19.7762 12.4999 19.7762C12.0855 19.7762 11.6882 19.6117 11.3952 19.3188L2.55611 10.4797C2.26319 10.1867 2.09863 9.78932 2.09863 9.375C2.09863 8.96068 2.26319 8.56332 2.55611 8.27031Z" fill="white"/>
</svg>
